<svg width="31.500000" height="34.833252" viewBox="0 0 31.5 34.8333" fill="none" xmlns="http://www.w3.org/2000/svg" xmlns:xlink="http://www.w3.org/1999/xlink">
	<desc>
			Created with Pixso.
	</desc>
	<defs/>
	<path id="Vector" d="M30.74 12.63C30.74 10.73 30.74 9.79 30.28 8.99C29.82 8.2 29 7.74 27.36 6.81L18.99 2.09C17.4 1.19 16.61 0.75 15.75 0.75C14.88 0.75 14.09 1.19 12.51 2.09L4.13 6.81C2.49 7.74 1.67 8.2 1.21 8.99C0.75 9.79 0.75 10.73 0.75 12.63L0.75 20.55C0.75 26.93 0.75 30.12 2.7 32.1C4.65 34.08 7.79 34.08 14.08 34.08L17.41 34.08C23.7 34.08 26.84 34.08 28.79 32.1C30.75 30.12 30.75 26.93 30.75 20.55L30.74 12.63Z" stroke="#737373" stroke-opacity="1.000000" stroke-width="1.500000"/>
	<path id="Vector" d="M12.41 19.08L9.08 19.08M22.41 19.08L19.08 19.08M12.41 12.41L9.08 12.41M12.41 25.74L9.08 25.74M22.41 12.41L19.08 12.41M22.41 25.74L19.08 25.74" stroke="#737373" stroke-opacity="1.000000" stroke-width="1.500000" stroke-linecap="round"/>
</svg>
