<svg width="126.559448" height="43.214111" viewBox="0 0 126.559 43.2141" fill="none" xmlns="http://www.w3.org/2000/svg" xmlns:xlink="http://www.w3.org/1999/xlink">
	<desc>
			Created with Pixso.
	</desc>
	<defs/>
	<path id="Vector 14" d="M0.74 13.74C0.74 13.74 15.91 -3.03 33.29 1.67C46.69 5.3 58.06 18.27 53.48 28.71C52.08 31.9 46.73 36.94 41.06 34.85C35.75 32.9 35.43 27.36 35.69 23.91C36.76 9.54 55.57 5.62 69.29 10.03C81.09 13.83 91.28 24.87 86.88 36.46C85.45 40.22 82.22 42.14 77.69 41.36C73.27 40.59 71.76 36.75 71.69 32.27C71.42 16.52 96.88 11.55 109.2 18.28C118.87 23.57 124.75 41.31 124.75 41.31M125.55 31.72L124.75 41.31L117.45 35.77" stroke="#212121" stroke-opacity="1.000000" stroke-width="2.000000" stroke-dasharray="5 5"/>
</svg>
